<svg width="18" height="14" viewBox="0 0 18 14" fill="none" xmlns="http://www.w3.org/2000/svg">
<path d="M1.4 5.23694C0.625333 5.23694 0 5.82173 0 6.54617C0 7.27062 0.625333 7.85541 1.4 7.85541C2.17467 7.85541 2.8 7.27062 2.8 6.54617C2.8 5.82173 2.17467 5.23694 1.4 5.23694ZM1.4 0C0.625333 0 0 0.584791 0 1.30923C0 2.03368 0.625333 2.61847 1.4 2.61847C2.17467 2.61847 2.8 2.03368 2.8 1.30923C2.8 0.584791 2.17467 0 1.4 0ZM1.4 10.4739C0.625333 10.4739 0 11.0674 0 11.7831C0 12.4988 0.634667 13.0923 1.4 13.0923C2.16533 13.0923 2.8 12.4988 2.8 11.7831C2.8 11.0674 2.17467 10.4739 1.4 10.4739ZM4.2 12.6559H17.2667V10.9103H4.2V12.6559ZM4.2 7.419H17.2667V5.67335H4.2V7.419ZM4.2 0.436412V2.18206H17.2667V0.436412H4.2Z" fill="black"/>
</svg>
