<svg width="12" height="14" viewBox="0 0 12 14" fill="none" xmlns="http://www.w3.org/2000/svg">
<path d="M10.572 3.65224L8.18036 1.26057C8.03988 1.11936 7.87278 1.00741 7.68874 0.931214C7.50471 0.855015 7.30738 0.816078 7.10819 0.816657H3.08319C2.52624 0.816657 1.99209 1.03791 1.59827 1.43173C1.20444 1.82556 0.983192 2.3597 0.983192 2.91666V11.0833C0.983192 11.3591 1.03751 11.6322 1.14305 11.887C1.24858 12.1417 1.40327 12.3732 1.59827 12.5682C1.79327 12.7633 2.02477 12.9179 2.27956 13.0235C2.53434 13.129 2.80742 13.1833 3.08319 13.1833H8.91653C9.1923 13.1833 9.46538 13.129 9.72016 13.0235C9.97494 12.9179 10.2064 12.7633 10.4014 12.5682C10.5965 12.3732 10.7511 12.1417 10.8567 11.887C10.9622 11.6322 11.0165 11.3591 11.0165 11.0833V4.72499C11.0171 4.52566 10.9781 4.3282 10.9018 4.14406C10.8255 3.95991 10.7134 3.79274 10.572 3.65224ZM10.3165 11.0833C10.3165 11.4546 10.169 11.8107 9.90647 12.0733C9.64392 12.3358 9.28783 12.4833 8.91653 12.4833H3.08319C2.71189 12.4833 2.35579 12.3358 2.09324 12.0733C1.83069 11.8107 1.68319 11.4546 1.68319 11.0833V2.91666C1.68319 2.54535 1.83069 2.18926 2.09324 1.92671C2.35579 1.66416 2.71189 1.51666 3.08319 1.51666H7.10819C7.32465 1.51734 7.53213 1.60327 7.68569 1.75582L10.0774 4.14749C10.2299 4.30105 10.3158 4.50853 10.3165 4.72499V11.0833ZM3.65019 5.38007L3.37136 5.03007L4.24986 4.33066H4.72819V7.06591H4.14953L4.16469 4.93849C4.06864 5.03455 4.00194 5.09755 3.96461 5.12749L3.65019 5.38007ZM7.42028 4.28749C7.28077 4.27783 7.14113 4.30438 7.0149 4.36458C6.88868 4.42478 6.78015 4.51658 6.69986 4.63107C6.5206 4.9569 6.43956 5.32767 6.46653 5.69857C6.44248 6.06453 6.52602 6.42952 6.70686 6.74857C6.78481 6.86466 6.89163 6.95846 7.01681 7.02075C7.142 7.08304 7.28125 7.11167 7.42086 7.10382C7.56084 7.11343 7.70093 7.0868 7.82762 7.02652C7.95432 6.96624 8.06334 6.87433 8.14419 6.75966C8.32324 6.43608 8.40431 6.06741 8.37753 5.69857C8.40084 5.33247 8.3167 4.96752 8.13544 4.64857C8.05796 4.53136 7.95124 4.43639 7.82581 4.37306C7.70038 4.30974 7.5606 4.28024 7.42028 4.28749V4.28749ZM7.71194 6.41666C7.69375 6.48003 7.65548 6.5358 7.60289 6.57556C7.55029 6.61532 7.48621 6.63694 7.42028 6.63716C7.3545 6.63766 7.29037 6.6166 7.2377 6.5772C7.18503 6.5378 7.14671 6.48223 7.12861 6.41899C7.05854 6.18541 7.02914 5.94153 7.04169 5.69799C7.02916 5.45361 7.05896 5.20889 7.12978 4.97466C7.14788 4.91127 7.18614 4.85551 7.23877 4.81581C7.2914 4.77611 7.35552 4.75464 7.42144 4.75464C7.48736 4.75464 7.55149 4.77611 7.60411 4.81581C7.65674 4.85551 7.695 4.91127 7.71311 4.97466C7.78614 5.20846 7.81695 5.45339 7.80411 5.69799C7.81588 5.9411 7.78468 6.18439 7.71194 6.41666V6.41666ZM7.72361 8.00741H8.19903V10.7427H7.62094L7.63319 8.61582C7.53714 8.71188 7.47044 8.77488 7.43311 8.80482L7.11869 9.05741L6.83986 8.70741L7.72361 8.00741ZM4.50478 8.00741C4.36527 7.99774 4.22563 8.0243 4.0994 8.0845C3.97318 8.1447 3.86465 8.2365 3.78436 8.35099C3.6051 8.67682 3.52406 9.04759 3.55103 9.41849C3.52698 9.78444 3.61052 10.1494 3.79136 10.4685C3.86931 10.5846 3.97613 10.6784 4.10131 10.7407C4.2265 10.803 4.36575 10.8316 4.50536 10.8237C4.64534 10.8333 4.78543 10.8067 4.91212 10.7464C5.03882 10.6862 5.14784 10.5942 5.22869 10.4796C5.40774 10.156 5.48881 9.78733 5.46203 9.41849C5.48534 9.05238 5.4012 8.68744 5.21994 8.36849C5.1426 8.25106 5.03594 8.15586 4.9105 8.09233C4.78506 8.02879 4.64521 7.99911 4.50478 8.00624V8.00741ZM4.79644 10.1366C4.77825 10.2 4.73998 10.2557 4.68739 10.2955C4.63479 10.3352 4.57071 10.3569 4.50478 10.3571C4.439 10.3576 4.37487 10.3365 4.3222 10.2971C4.26953 10.2577 4.23121 10.2021 4.21311 10.1389C4.14304 9.90533 4.11364 9.66145 4.12619 9.41791C4.11366 9.17352 4.14346 8.92881 4.21428 8.69457C4.23238 8.63119 4.27064 8.57543 4.32327 8.53573C4.3759 8.49603 4.44002 8.47456 4.50594 8.47456C4.57186 8.47456 4.63599 8.49603 4.68861 8.53573C4.74124 8.57543 4.7795 8.63119 4.79761 8.69457C4.87064 8.92837 4.90145 9.17331 4.88861 9.41791C4.90045 9.6606 4.86945 9.90347 4.79703 10.1354L4.79644 10.1366Z" fill="white"/>
</svg>
