<svg width="18" height="22" viewBox="0 0 18 22" fill="none" xmlns="http://www.w3.org/2000/svg">
<path d="M16.8379 5.26104L12.7379 1.16104C12.4971 0.918954 12.2107 0.727045 11.8952 0.596419C11.5797 0.465792 11.2414 0.399043 10.8999 0.400035H3.99993C3.04515 0.400035 2.12948 0.77932 1.45435 1.45445C0.779218 2.12958 0.399933 3.04526 0.399933 4.00004V18C0.399933 18.4728 0.493049 18.9409 0.673966 19.3777C0.854883 19.8145 1.12006 20.2113 1.45435 20.5456C1.78864 20.8799 2.1855 21.1451 2.62227 21.326C3.05904 21.5069 3.52717 21.6 3.99993 21.6H13.9999C14.4727 21.6 14.9408 21.5069 15.3776 21.326C15.8144 21.1451 16.2112 20.8799 16.5455 20.5456C16.8798 20.2113 17.145 19.8145 17.3259 19.3777C17.5068 18.9409 17.5999 18.4728 17.5999 18V7.10004C17.6009 6.75833 17.5341 6.41983 17.4033 6.10415C17.2725 5.78847 17.0803 5.5019 16.8379 5.26104ZM16.3999 18C16.3999 18.6366 16.1471 19.247 15.697 19.6971C15.2469 20.1472 14.6365 20.4 13.9999 20.4H3.99993C3.36341 20.4 2.75296 20.1472 2.30288 19.6971C1.85279 19.247 1.59993 18.6366 1.59993 18V4.00004C1.59993 3.36352 1.85279 2.75307 2.30288 2.30298C2.75296 1.85289 3.36341 1.60004 3.99993 1.60004H10.8999C11.271 1.60121 11.6267 1.74851 11.8899 2.01004L15.9899 6.11004C16.2515 6.37328 16.3988 6.72896 16.3999 7.10004V18ZM4.97193 8.22303L4.49393 7.62304L5.99993 6.42404H6.81993V11.113H5.82793L5.85393 7.46603C5.68927 7.6307 5.57493 7.7387 5.51093 7.79004L4.97193 8.22303ZM11.4349 6.35004C11.1958 6.33347 10.9564 6.37899 10.74 6.48219C10.5236 6.58539 10.3376 6.74276 10.1999 6.93904C9.89263 7.49759 9.7537 8.1332 9.79993 8.76904C9.75871 9.39638 9.90193 10.0221 10.2119 10.569C10.3456 10.768 10.5287 10.9288 10.7433 11.0356C10.9579 11.1424 11.1966 11.1915 11.4359 11.178C11.6759 11.1945 11.916 11.1489 12.1332 11.0455C12.3504 10.9422 12.5373 10.7846 12.6759 10.588C12.9829 10.0333 13.1219 9.40133 13.0759 8.76904C13.1159 8.14142 12.9717 7.5158 12.6609 6.96904C12.5281 6.76809 12.3451 6.60529 12.1301 6.49673C11.9151 6.38817 11.6755 6.3376 11.4349 6.35004ZM11.9349 10C11.9038 10.1087 11.8381 10.2043 11.748 10.2724C11.6578 10.3406 11.548 10.3777 11.4349 10.378C11.3222 10.3789 11.2122 10.3428 11.1219 10.2752C11.0316 10.2077 10.966 10.1124 10.9349 10.004C10.8148 9.60362 10.7644 9.18553 10.7859 8.76803C10.7645 8.34909 10.8155 7.92958 10.9369 7.52804C10.968 7.41938 11.0336 7.32378 11.1238 7.25573C11.214 7.18768 11.3239 7.15086 11.4369 7.15086C11.5499 7.15086 11.6599 7.18768 11.7501 7.25573C11.8403 7.32378 11.9059 7.41938 11.9369 7.52804C12.0621 7.92883 12.1149 8.34872 12.0929 8.76803C12.1131 9.1848 12.0596 9.60185 11.9349 10ZM11.9549 12.727H12.7699V17.416H11.7789L11.7999 13.77C11.6353 13.9347 11.5209 14.0427 11.4569 14.094L10.9179 14.527L10.4399 13.927L11.9549 12.727ZM6.43693 12.727C6.19777 12.7105 5.95839 12.756 5.742 12.8592C5.52562 12.9624 5.33958 13.1198 5.20193 13.316C4.89463 13.8746 4.7557 14.5102 4.80193 15.146C4.76071 15.7734 4.90393 16.3991 5.21393 16.946C5.34755 17.145 5.53068 17.3058 5.74529 17.4126C5.9599 17.5194 6.1986 17.5685 6.43793 17.555C6.67789 17.5715 6.91805 17.5259 7.13524 17.4225C7.35243 17.3192 7.53934 17.1616 7.67793 16.965C7.98488 16.4103 8.12386 15.7783 8.07793 15.146C8.11789 14.5184 7.97365 13.8928 7.66293 13.346C7.53035 13.1447 7.34749 12.9815 7.13246 12.8726C6.91742 12.7637 6.67767 12.7128 6.43693 12.725V12.727ZM6.93693 16.377C6.90575 16.4857 6.84015 16.5813 6.74998 16.6494C6.65982 16.7176 6.54996 16.7547 6.43693 16.755C6.32417 16.7559 6.21424 16.7198 6.12394 16.6522C6.03365 16.5847 5.96796 16.4894 5.93693 16.381C5.81681 15.9806 5.76641 15.5625 5.78793 15.145C5.76646 14.7261 5.81754 14.3066 5.93893 13.905C5.96997 13.7964 6.03556 13.7008 6.12578 13.6327C6.216 13.5647 6.32593 13.5279 6.43893 13.5279C6.55194 13.5279 6.66187 13.5647 6.75209 13.6327C6.8423 13.7008 6.90789 13.7964 6.93893 13.905C7.06412 14.3058 7.11695 14.7257 7.09493 15.145C7.11523 15.5611 7.06208 15.9774 6.93793 16.375L6.93693 16.377Z" fill="black"/>
</svg>
