<svg width="13" height="10" viewBox="0 0 13 10" fill="none" xmlns="http://www.w3.org/2000/svg">
<path d="M12.5 3.75V1.25C12.5 0.5625 11.9375 0 11.25 0H1.25C0.5625 0 0.00624999 0.5625 0.00624999 1.25V3.75C0.69375 3.75 1.25 4.3125 1.25 5C1.25 5.6875 0.69375 6.25 0 6.25V8.75C0 9.4375 0.5625 10 1.25 10H11.25C11.9375 10 12.5 9.4375 12.5 8.75V6.25C11.8125 6.25 11.25 5.6875 11.25 5C11.25 4.3125 11.8125 3.75 12.5 3.75ZM11.25 2.8375C10.5063 3.26875 10 4.08125 10 5C10 5.91875 10.5063 6.73125 11.25 7.1625V8.75H1.25V7.1625C1.99375 6.73125 2.5 5.91875 2.5 5C2.5 4.075 2 3.26875 1.25625 2.8375L1.25 1.25H11.25V2.8375ZM4.41875 7.5L6.25 6.325L8.08125 7.5L7.525 5.4L9.20625 4.025L7.0375 3.89375L6.25 1.875L5.45625 3.8875L3.2875 4.01875L4.96875 5.39375L4.41875 7.5Z" fill="white"/>
</svg>
