<svg width="18" height="14" viewBox="0 0 18 14" fill="none" xmlns="http://www.w3.org/2000/svg">
<path d="M17.5 4.90965V1.63655C17.5 0.736448 16.7125 0 15.75 0H1.75C0.7875 0 0.00874999 0.736448 0.00874999 1.63655V4.90965C0.97125 4.90965 1.75 5.6461 1.75 6.5462C1.75 7.44631 0.97125 8.18275 0 8.18275V11.4559C0 12.356 0.7875 13.0924 1.75 13.0924H15.75C16.7125 13.0924 17.5 12.356 17.5 11.4559V8.18275C16.5375 8.18275 15.75 7.44631 15.75 6.5462C15.75 5.6461 16.5375 4.90965 17.5 4.90965ZM15.75 3.71497C14.7087 4.27958 14 5.34334 14 6.5462C14 7.74907 14.7087 8.81283 15.75 9.37744V11.4559H1.75V9.37744C2.79125 8.81283 3.5 7.74907 3.5 6.5462C3.5 5.33516 2.8 4.27958 1.75875 3.71497L1.75 1.63655H15.75V3.71497ZM6.18625 9.81931L8.75 8.28095L11.3138 9.81931L10.535 7.0699L12.8888 5.26969L9.8525 5.09786L8.75 2.45483L7.63875 5.08967L4.6025 5.26151L6.95625 7.06172L6.18625 9.81931Z" fill="#181818"/>
</svg>
