<svg width="18" height="18" viewBox="0 0 18 18" fill="none" xmlns="http://www.w3.org/2000/svg">
<path d="M8.74 1.57538C11.0736 1.57538 11.3503 1.58412 12.2724 1.62637C14.641 1.73416 15.7473 2.85798 15.8551 5.20904C15.8973 6.13038 15.9053 6.40715 15.9053 8.74073C15.9053 11.075 15.8966 11.3511 15.8551 12.2724C15.7466 14.6213 14.6431 15.7473 12.2724 15.8551C11.3503 15.8973 11.075 15.9061 8.74 15.9061C6.40642 15.9061 6.12965 15.8973 5.20831 15.8551C2.83394 15.7466 1.73343 14.6177 1.62564 12.2717C1.5834 11.3503 1.57466 11.0743 1.57466 8.74C1.57466 6.40642 1.58413 6.13038 1.62564 5.20831C1.73416 2.85798 2.83759 1.73343 5.20831 1.62564C6.13038 1.58413 6.40642 1.57538 8.74 1.57538ZM8.74 0C6.36636 0 6.0692 0.0101967 5.13693 0.05244C1.96286 0.198107 0.198835 1.95922 0.0531683 5.13621C0.0101967 6.0692 0 6.36636 0 8.74C0 11.1136 0.0101967 11.4115 0.05244 12.3438C0.198107 15.5179 1.95922 17.2819 5.13621 17.4276C6.0692 17.4698 6.36636 17.48 8.74 17.48C11.1136 17.48 11.4115 17.4698 12.3438 17.4276C15.515 17.2819 17.2833 15.5208 17.4268 12.3438C17.4698 11.4115 17.48 11.1136 17.48 8.74C17.48 6.36636 17.4698 6.0692 17.4276 5.13693C17.2848 1.96577 15.5215 0.198835 12.3445 0.0531683C11.4115 0.0101967 11.1136 0 8.74 0V0ZM8.74 4.25201C6.26148 4.25201 4.25201 6.26148 4.25201 8.74C4.25201 11.2185 6.26148 13.2287 8.74 13.2287C11.2185 13.2287 13.228 11.2192 13.228 8.74C13.228 6.26148 11.2185 4.25201 8.74 4.25201ZM8.74 11.6533C7.13111 11.6533 5.82667 10.3496 5.82667 8.74C5.82667 7.13111 7.13111 5.82667 8.74 5.82667C10.3489 5.82667 11.6533 7.13111 11.6533 8.74C11.6533 10.3496 10.3489 11.6533 8.74 11.6533ZM13.4057 3.02623C12.8259 3.02623 12.3562 3.496 12.3562 4.07502C12.3562 4.65405 12.8259 5.12382 13.4057 5.12382C13.9847 5.12382 14.4538 4.65405 14.4538 4.07502C14.4538 3.496 13.9847 3.02623 13.4057 3.02623Z" fill="#A0A0A0"/>
</svg>
