<svg width="16" height="19" viewBox="0 0 16 19" fill="none" xmlns="http://www.w3.org/2000/svg">
<path d="M8.00002 18.1667C9.00835 18.1667 9.83335 17.3417 9.83335 16.3334H6.16669C6.16669 17.3417 6.99169 18.1667 8.00002 18.1667ZM13.5 12.6667V8.08342C13.5 5.26925 12.0059 2.91341 9.37502 2.29008V1.66675C9.37502 0.905915 8.76085 0.291748 8.00002 0.291748C7.23919 0.291748 6.62502 0.905915 6.62502 1.66675V2.29008C4.00335 2.91341 2.50002 5.26008 2.50002 8.08342V12.6667L0.666687 14.5001V15.4167H15.3334V14.5001L13.5 12.6667ZM11.6667 13.5834H4.33335V8.08342C4.33335 5.81008 5.71752 3.95841 8.00002 3.95841C10.2825 3.95841 11.6667 5.81008 11.6667 8.08342V13.5834Z" fill="#2D2D2D"/>
</svg>
