<svg width="15" height="13" viewBox="0 0 15 13" fill="none" xmlns="http://www.w3.org/2000/svg">
<path d="M7.53262 8.11392C8.42406 8.11392 9.14671 7.39127 9.14671 6.49983C9.14671 5.60839 8.42406 4.88574 7.53262 4.88574C6.64119 4.88574 5.91853 5.60839 5.91853 6.49983C5.91853 7.39127 6.64119 8.11392 7.53262 8.11392Z" fill="white"/>
<path d="M13.2909 8.76656C13.728 8.76656 14.0823 8.41226 14.0823 7.9752C14.0823 7.53814 13.728 7.18384 13.2909 7.18384C12.8539 7.18384 12.4996 7.53814 12.4996 7.9752C12.4996 8.41226 12.8539 8.76656 13.2909 8.76656Z" fill="white"/>
<path d="M5.73459 1.62374C6.17164 1.62374 6.52595 1.26944 6.52595 0.832379C6.52595 0.395321 6.17164 0.0410156 5.73459 0.0410156C5.29753 0.0410156 4.94322 0.395321 4.94322 0.832379C4.94322 1.26944 5.29753 1.62374 5.73459 1.62374Z" fill="white"/>
<path d="M3.25183 11.5153C3.68889 11.5153 4.04319 11.161 4.04319 10.724C4.04319 10.2869 3.68889 9.93262 3.25183 9.93262C2.81477 9.93262 2.46046 10.2869 2.46046 10.724C2.46046 11.161 2.81477 11.5153 3.25183 11.5153Z" fill="white"/>
<path d="M8.23502 11.9637C9.45821 12.9164 10.5355 13.1978 11.2668 12.7546C11.6387 12.5292 12.0828 12.0114 12.0828 10.8273C12.0828 10.2751 11.985 9.64326 11.805 8.96462C12.0446 8.89462 12.2782 8.82007 12.4941 8.73826C12.3368 8.57507 12.2332 8.3628 12.2005 8.12735C12.0178 8.19462 11.8178 8.2578 11.6128 8.31826C11.4237 7.74371 11.1823 7.14644 10.8909 6.53916C11.1864 5.92826 11.4323 5.32644 11.6241 4.74871C13.1778 5.20598 14.11 5.89144 14.11 6.53326C14.11 6.70735 14.0409 6.88371 13.9105 7.05871C14.1023 7.18826 14.2478 7.37826 14.3278 7.60007C14.6164 7.27144 14.7732 6.9128 14.7732 6.5328C14.7732 5.50644 13.6332 4.63371 11.8187 4.10189C12.0005 3.4228 12.0991 2.78962 12.0991 2.23735C12.0991 1.06553 11.6596 0.550527 11.2905 0.325072C10.5609 -0.120382 9.48275 0.156436 8.25593 1.10462C8.01002 1.29462 7.7632 1.51144 7.51639 1.74462C7.27593 1.51462 7.03684 1.30235 6.80093 1.1178C6.7423 1.33689 6.61457 1.53598 6.42911 1.68598C6.6273 1.84416 6.8323 2.02598 7.0382 2.22235C6.64139 2.64235 6.25093 3.11189 5.87411 3.62053C5.14366 3.68371 4.46093 3.78916 3.84002 3.93144C3.67275 3.3078 3.58139 2.73053 3.58139 2.2378C3.58139 1.75462 3.6673 1.12735 4.07775 0.878709C4.22502 0.789163 4.41411 0.762345 4.63002 0.7828C4.64139 0.549163 4.72866 0.324618 4.87775 0.140072C4.44684 0.0627994 4.05911 0.114163 3.7332 0.311436C3.36139 0.53689 2.9182 1.05371 2.9182 2.2378C2.9182 2.78916 3.01502 3.42144 3.19502 4.09871C1.37275 4.62962 0.227295 5.50507 0.227295 6.5328C0.227295 7.55916 1.36911 8.4328 3.18548 8.96462C3.1232 9.19644 3.0673 9.42553 3.02548 9.64462C3.24366 9.59826 3.47366 9.62053 3.68866 9.7128C3.72593 9.52553 3.77457 9.33007 3.8282 9.13144C4.44957 9.27416 5.13411 9.38098 5.86639 9.44462C6.24002 9.95235 6.6282 10.4219 7.0232 10.8428C5.76366 12.0296 4.62639 12.5214 4.05548 12.1737C3.89411 12.0751 3.78457 11.9155 3.71002 11.7296C3.49957 11.8255 3.26366 11.8505 3.03366 11.8042C3.19184 12.3137 3.46593 12.5905 3.71002 12.7401C4.62275 13.2969 6.03775 12.7123 7.50002 11.3223C7.74502 11.556 7.99093 11.7737 8.23502 11.9637ZM11.4187 10.8273C11.4187 11.3105 11.3328 11.9387 10.9223 12.1864C10.45 12.4733 9.61911 12.2005 8.6423 11.4396C8.41775 11.2655 8.1923 11.066 7.96775 10.8519C8.36002 10.4346 8.75275 9.96326 9.13593 9.44189C9.86321 9.37871 10.5414 9.27235 11.16 9.13098C11.3273 9.75644 11.4187 10.3346 11.4187 10.8273ZM10.965 8.48598C10.5559 8.57916 10.1146 8.65826 9.6432 8.71871C9.77911 8.51371 9.91321 8.30326 10.0455 8.08735C10.2064 7.82371 10.3596 7.55826 10.5037 7.2928C10.6818 7.69871 10.8364 8.09916 10.965 8.48598ZM7.50002 8.85189C7.05684 8.85189 6.63002 8.83507 6.22002 8.80553C5.97775 8.46371 5.7423 8.10598 5.51684 7.73326C5.27548 7.33553 5.0532 6.93144 4.85184 6.52871C5.05502 6.12644 5.27866 5.72371 5.52139 5.32507C5.74775 4.95553 5.98411 4.60053 6.22639 4.26053C6.63457 4.23144 7.05911 4.21416 7.50048 4.21416C7.94366 4.21416 8.36957 4.23098 8.77957 4.26053C9.01821 4.59689 9.25366 4.9528 9.48366 5.33189C9.72502 5.73144 9.9473 6.13553 10.1496 6.53825C9.94548 6.94053 9.72275 7.34326 9.47911 7.74098C9.24911 8.11826 9.0132 8.47053 8.77502 8.80462C8.36548 8.83416 7.94139 8.85189 7.50002 8.85189ZM10.5068 5.78462C10.3632 5.51916 10.2114 5.2528 10.0505 4.98825C9.9173 4.76825 9.78139 4.55416 9.64366 4.34644C10.1196 4.40689 10.565 4.48598 10.9773 4.58007C10.8459 4.97144 10.6891 5.37416 10.5068 5.78462ZM10.9446 0.891891C11.3505 1.13962 11.4355 1.76098 11.4355 2.2378C11.4355 2.73144 11.3423 3.30916 11.1737 3.93416C10.5532 3.79144 9.86957 3.68553 9.13775 3.62144C8.75866 3.1028 8.37139 2.63144 7.98275 2.21598C8.20911 2.0028 8.43548 1.80325 8.66093 1.62916C9.64048 0.873254 10.4732 0.604163 10.9446 0.891891ZM7.50639 2.69235C7.75593 2.9578 8.0073 3.24916 8.2582 3.56598C8.00957 3.55644 7.75639 3.55098 7.50002 3.55098C7.24593 3.55098 6.99684 3.55644 6.75184 3.56507C6.99911 3.25416 7.25139 2.96235 7.50639 2.69235ZM5.36048 4.34553C5.22275 4.55235 5.08684 4.76371 4.95457 4.97962C4.7932 5.24507 4.64275 5.51053 4.4982 5.77689C4.31911 5.36826 4.16366 4.96689 4.03411 4.57735C4.44411 4.48371 4.8882 4.40507 5.36048 4.34553ZM0.890477 6.5328C0.890477 5.88916 1.8273 5.2028 3.38775 4.74462C3.57684 5.32098 3.81911 5.92098 4.11139 6.53007C3.81639 7.14007 3.57048 7.74098 3.38002 8.31826C1.82366 7.86098 0.890477 7.17553 0.890477 6.5328ZM4.02502 8.48689C4.15639 8.09644 4.31366 7.69416 4.49457 7.28416C4.6373 7.54871 4.78911 7.81416 4.9482 8.07689C5.08139 8.29598 5.2182 8.51007 5.3573 8.72053C4.88275 8.66007 4.4373 8.58098 4.02502 8.48689ZM8.25002 9.50007C7.99684 9.81689 7.74411 10.1101 7.49275 10.3755C7.23957 10.1046 6.98866 9.81189 6.74184 9.50007C6.99048 9.50962 7.24366 9.51507 7.50002 9.51507C7.75411 9.51507 8.00411 9.50962 8.25002 9.50007Z" fill="white"/>
</svg>
