<svg width="24" height="22" viewBox="0 0 24 22" fill="none" xmlns="http://www.w3.org/2000/svg">
<path d="M12.0523 13.5824C13.4786 13.5824 14.6348 12.4262 14.6348 10.9999C14.6348 9.5736 13.4786 8.41736 12.0523 8.41736C10.626 8.41736 9.46974 9.5736 9.46974 10.9999C9.46974 12.4262 10.626 13.5824 12.0523 13.5824Z" fill="black"/>
<path d="M21.2654 14.6265C21.9647 14.6265 22.5316 14.0596 22.5316 13.3603C22.5316 12.661 21.9647 12.0941 21.2654 12.0941C20.5661 12.0941 19.9992 12.661 19.9992 13.3603C19.9992 14.0596 20.5661 14.6265 21.2654 14.6265Z" fill="black"/>
<path d="M9.17535 3.19801C9.87464 3.19801 10.4415 2.63112 10.4415 1.93183C10.4415 1.23254 9.87464 0.665649 9.17535 0.665649C8.47605 0.665649 7.90916 1.23254 7.90916 1.93183C7.90916 2.63112 8.47605 3.19801 9.17535 3.19801Z" fill="black"/>
<path d="M5.2029 19.0243C5.9022 19.0243 6.46908 18.4574 6.46908 17.7581C6.46908 17.0588 5.9022 16.4919 5.2029 16.4919C4.50361 16.4919 3.93672 17.0588 3.93672 17.7581C3.93672 18.4574 4.50361 19.0243 5.2029 19.0243Z" fill="black"/>
<path d="M13.176 19.7418C15.133 21.2662 16.8567 21.7164 18.0269 21.0073C18.6218 20.6466 19.3323 19.8182 19.3323 17.9237C19.3323 17.04 19.176 16.0291 18.888 14.9433C19.2712 14.8313 19.645 14.712 19.9905 14.5811C19.7389 14.32 19.573 13.9804 19.5207 13.6037C19.2283 13.7113 18.9083 13.8124 18.5803 13.9091C18.2778 12.9898 17.8916 12.0342 17.4254 11.0626C17.8981 10.0851 18.2916 9.1222 18.5985 8.19784C21.0843 8.92947 22.576 10.0262 22.576 11.0531C22.576 11.3317 22.4654 11.6138 22.2567 11.8938C22.5636 12.1011 22.7963 12.4051 22.9243 12.76C23.3861 12.2342 23.637 11.6604 23.637 11.0524C23.637 9.4102 21.813 8.01384 18.9098 7.16293C19.2007 6.07638 19.3585 5.06329 19.3585 4.17965C19.3585 2.30475 18.6552 1.48075 18.0647 1.12002C16.8974 0.407291 15.1723 0.8502 13.2094 2.36729C12.816 2.67129 12.421 3.0182 12.0261 3.39129C11.6414 3.02329 11.2589 2.68365 10.8814 2.38838C10.7876 2.73893 10.5832 3.05747 10.2865 3.29747C10.6036 3.55056 10.9316 3.84147 11.261 4.15565C10.6261 4.82765 10.0014 5.57893 9.3985 6.39275C8.22977 6.49384 7.13741 6.66256 6.14395 6.8902C5.87631 5.89238 5.73013 4.96875 5.73013 4.18038C5.73013 3.40729 5.86759 2.40365 6.52431 2.00584C6.75995 1.86256 7.0625 1.81965 7.40795 1.85238C7.42613 1.47856 7.56577 1.11929 7.80431 0.824018C7.11486 0.700381 6.4945 0.782563 5.97304 1.0982C5.37813 1.45893 4.66904 2.28584 4.66904 4.18038C4.66904 5.06256 4.82395 6.0742 5.11195 7.15784C2.19631 8.00729 0.363586 9.40802 0.363586 11.0524C0.363586 12.6946 2.1905 14.0924 5.09668 14.9433C4.99704 15.3142 4.90759 15.6807 4.84068 16.0313C5.18977 15.9571 5.55777 15.9927 5.90177 16.1404C5.96141 15.8407 6.03922 15.528 6.12504 15.2102C7.11922 15.4386 8.2145 15.6095 9.38613 15.7113C9.98395 16.5237 10.605 17.2749 11.237 17.9484C9.22177 19.8473 7.40213 20.6342 6.48868 20.0778C6.2305 19.92 6.05522 19.6647 5.93595 19.3673C5.59922 19.5207 5.22177 19.5607 4.85377 19.4866C5.10686 20.3018 5.5454 20.7447 5.93595 20.984C7.39631 21.8749 9.66031 20.9397 12 18.7157C12.392 19.0895 12.7854 19.4378 13.176 19.7418ZM18.2698 17.9237C18.2698 18.6967 18.1323 19.7018 17.4756 20.0982C16.72 20.5571 15.3905 20.1207 13.8276 18.9033C13.4683 18.6247 13.1076 18.3055 12.7483 17.9629C13.376 17.2953 14.0043 16.5411 14.6174 15.7069C15.781 15.6058 16.8661 15.4357 17.856 15.2095C18.1236 16.2102 18.2698 17.1353 18.2698 17.9237ZM17.544 14.1775C16.8894 14.3266 16.1832 14.4531 15.429 14.5498C15.6465 14.2218 15.861 13.8851 16.0727 13.5397C16.3301 13.1178 16.5752 12.6931 16.8058 12.2684C17.0909 12.9178 17.3381 13.5586 17.544 14.1775ZM12 14.7629C11.2909 14.7629 10.608 14.736 9.95195 14.6887C9.56431 14.1418 9.18759 13.5695 8.82686 12.9731C8.44068 12.3367 8.08504 11.6902 7.76286 11.0458C8.08795 10.4022 8.44577 9.75784 8.83413 9.12002C9.19631 8.52875 9.5745 7.96075 9.96213 7.41675C10.6152 7.3702 11.2945 7.34256 12.0007 7.34256C12.7098 7.34256 13.3912 7.36947 14.0472 7.41675C14.429 7.95493 14.8058 8.52438 15.1738 9.13093C15.56 9.7702 15.9156 10.4167 16.2392 11.0611C15.9127 11.7047 15.5563 12.3491 15.1665 12.9855C14.7985 13.5891 14.421 14.1527 14.04 14.6873C13.3847 14.7346 12.7061 14.7629 12 14.7629ZM16.8109 9.85529C16.581 9.43056 16.3381 9.00438 16.0807 8.58111C15.8676 8.22911 15.6501 7.88656 15.4298 7.5542C16.1912 7.65093 16.904 7.77747 17.5636 7.92802C17.3534 8.5542 17.1025 9.19856 16.8109 9.85529ZM17.5112 2.02693C18.1607 2.42329 18.2967 3.41747 18.2967 4.18038C18.2967 4.9702 18.1476 5.89456 17.8778 6.89456C16.885 6.6662 15.7912 6.49675 14.6203 6.3942C14.0138 5.56438 13.3941 4.8102 12.7723 4.14547C13.1345 3.80438 13.4967 3.48511 13.8574 3.20656C15.4247 1.99711 16.757 1.56656 17.5112 2.02693ZM12.0101 4.90765C12.4094 5.33238 12.8116 5.79856 13.213 6.30547C12.8152 6.2902 12.4101 6.28147 12 6.28147C11.5934 6.28147 11.1949 6.2902 10.8029 6.30402C11.1985 5.80656 11.6021 5.33965 12.0101 4.90765ZM8.57668 7.55275C8.35631 7.88365 8.13886 8.22184 7.92722 8.56729C7.66904 8.99202 7.42831 9.41675 7.19704 9.84293C6.9105 9.18911 6.66177 8.54693 6.4545 7.92365C7.1105 7.77384 7.82104 7.64802 8.57668 7.55275ZM1.42468 11.0524C1.42468 10.0226 2.92359 8.92438 5.42031 8.19129C5.72286 9.11347 6.1105 10.0735 6.57813 11.048C6.10613 12.024 5.71268 12.9855 5.40795 13.9091C2.91777 13.1775 1.42468 12.0807 1.42468 11.0524ZM6.43995 14.1789C6.65013 13.5542 6.90177 12.9106 7.19122 12.2546C7.41959 12.6778 7.6625 13.1026 7.91704 13.5229C8.13013 13.8735 8.34904 14.216 8.57159 14.5527C7.81231 14.456 7.09959 14.3295 6.43995 14.1789ZM13.2 15.8C12.7949 16.3069 12.3905 16.776 11.9883 17.2007C11.5832 16.7673 11.1818 16.2989 10.7869 15.8C11.1847 15.8153 11.5898 15.824 12 15.824C12.4065 15.824 12.8065 15.8153 13.2 15.8Z" fill="black"/>
</svg>
