<svg width="22" height="16" viewBox="0 0 22 16" fill="none" xmlns="http://www.w3.org/2000/svg">
<path d="M14 -0.000244141C9.58 -0.000244141 6 3.57976 6 7.99976C6 12.4198 9.58 15.9998 14 15.9998C18.42 15.9998 22 12.4198 22 7.99976C22 3.57976 18.42 -0.000244141 14 -0.000244141ZM14 13.9998C10.69 13.9998 8 11.3098 8 7.99976C8 4.68976 10.69 1.99976 14 1.99976C17.31 1.99976 20 4.68976 20 7.99976C20 11.3098 17.31 13.9998 14 13.9998ZM2 7.99976C2 5.38976 3.67 3.16976 6 2.34976V0.259756C2.55 1.14976 0 4.26976 0 7.99976C0 11.7298 2.55 14.8498 6 15.7398V13.6498C3.67 12.8298 2 10.6098 2 7.99976Z" fill="white"/>
</svg>
