<svg width="17" height="18" viewBox="0 0 17 18" fill="none" xmlns="http://www.w3.org/2000/svg">
<path fill-rule="evenodd" clip-rule="evenodd" d="M14.2316 0C15.2193 0 16.0233 0.80408 16.0233 1.80044V17.48L14.1442 15.8194L13.0867 14.8405L11.968 13.8005L12.4312 15.4174H2.52003C1.53241 15.4174 0.728333 14.6133 0.728333 13.6169V1.80044C0.728333 0.80408 1.53241 0 2.52003 0H14.2316V0ZM10.858 11.4144C12.7895 11.3533 13.5324 10.086 13.5324 10.086C13.5324 7.27168 12.2739 4.99054 12.2739 4.99054C11.0153 4.04662 9.81793 4.07284 9.81793 4.07284L9.69557 4.21268C11.1814 4.66716 11.8718 5.32266 11.8718 5.32266C10.9629 4.82448 10.0714 4.57976 9.24109 4.48362C8.61181 4.4137 8.00875 4.43118 7.47561 4.5011L7.32703 4.51858C7.02113 4.5448 6.27823 4.65842 5.34305 5.0692C5.01967 5.21778 4.82739 5.32266 4.82739 5.32266C4.82739 5.32266 5.55281 4.6322 7.12601 4.17772L7.03861 4.07284C7.03861 4.07284 5.84123 4.04662 4.58267 4.99054C4.58267 4.99054 3.32411 7.27168 3.32411 10.086C3.32411 10.086 4.05827 11.3533 5.98981 11.4144C5.98981 11.4144 6.31319 11.0211 6.57539 10.689C5.46541 10.3569 5.04589 9.6577 5.04589 9.6577L5.29061 9.80628L5.32557 9.8325L5.3598 9.85217L5.37 9.85653L5.40423 9.8762C5.62273 9.99856 5.84123 10.0947 6.04225 10.1734C6.40059 10.3132 6.82885 10.453 7.32703 10.5492C7.98253 10.6715 8.75165 10.7152 9.59069 10.5579C10.0015 10.488 10.421 10.3656 10.858 10.1821C11.1639 10.0685 11.5048 9.90242 11.8631 9.66644C11.8631 9.66644 11.4261 10.3831 10.2812 10.7065C10.5434 11.0386 10.858 11.4144 10.858 11.4144ZM6.79389 7.33286C6.29571 7.33286 5.90241 7.76986 5.90241 8.303C5.90241 8.83614 6.30445 9.27314 6.79389 9.27314C7.29207 9.27314 7.68537 8.83614 7.68537 8.303C7.69411 7.76986 7.29207 7.33286 6.79389 7.33286ZM9.98399 7.33286C9.48581 7.33286 9.09251 7.76986 9.09251 8.303C9.09251 8.83614 9.49455 9.27314 9.98399 9.27314C10.4822 9.27314 10.8755 8.83614 10.8755 8.303C10.8755 7.76986 10.4822 7.33286 9.98399 7.33286Z" fill="#A0A0A0"/>
</svg>
