<svg width="18" height="15" viewBox="0 0 18 15" fill="none" xmlns="http://www.w3.org/2000/svg">
<path d="M17.48 2.31942C16.8369 2.60492 16.1457 2.7972 15.4203 2.88387C16.161 2.44032 16.7298 1.73748 16.9971 0.899895C16.3045 1.31068 15.5368 1.60929 14.7196 1.77025C14.0663 1.07324 13.1333 0.637695 12.102 0.637695C9.78661 0.637695 8.08523 2.79793 8.60817 5.04047C5.62856 4.89116 2.98617 3.46363 1.21704 1.29392C0.277495 2.90572 0.72979 5.01425 2.3263 6.08199C1.73926 6.06305 1.18573 5.90209 0.702842 5.63333C0.663512 7.29466 1.85434 8.84892 3.57903 9.19488C3.07429 9.33181 2.52149 9.36386 1.95922 9.25606C2.41515 10.6807 3.73926 11.7171 5.30955 11.7462C3.8019 12.9283 1.90241 13.4564 0 13.232C1.58704 14.2495 3.47269 14.8431 5.49746 14.8431C12.1559 14.8431 15.9177 9.21965 15.6905 4.17594C16.3911 3.66975 16.9993 3.03828 17.48 2.31942Z" fill="#A0A0A0"/>
</svg>
