<svg width="112" height="14" viewBox="0 0 112 14" fill="none" xmlns="http://www.w3.org/2000/svg">
<path d="M13.4613 8.51748C13.4613 10.1655 13.1513 11.3811 12.5312 12.1643C11.5196 13.3881 9.58608 14 6.73065 14C4.82159 14 3.27966 13.7063 2.10486 13.1189C1.2727 12.6783 0.709778 12.0583 0.416077 11.2587C0.138692 10.5245 0 9.61072 0 8.51748V0H2.88806V7.85664C2.88806 8.62354 2.95333 9.21096 3.08386 9.61888C3.23071 10.0268 3.49178 10.3613 3.86707 10.6224C4.56868 11.1445 5.57216 11.4056 6.8775 11.4056C8.19916 11.4056 9.21079 11.1445 9.91241 10.6224C10.2714 10.3613 10.5161 10.0268 10.6467 9.61888C10.7935 9.21096 10.8669 8.62354 10.8669 7.85664V0H13.4613V8.51748Z" fill="white"/>
<path d="M29.6912 4.67483V13.7063H27.0969V0H29.6423L38.7715 8.81119V0H41.3658V13.7063H39.0897L29.6912 4.67483Z" fill="white"/>
<path d="M62.5887 6.60839L67.7529 13.7063H64.4243L60.7286 9.03147L57.0818 13.7063H54.0469L59.2356 6.75524L54.3406 0H57.7671L61.1447 4.38112L64.4243 0H67.6306L62.5887 6.60839Z" fill="white"/>
<path d="M80.6787 0H87.7276C89.3755 0 90.6727 0.212121 91.6191 0.636364C92.9244 1.22378 93.8626 2.19464 94.4337 3.54895C94.8416 4.49534 95.0456 5.59674 95.0456 6.85315C95.0456 9.2028 94.3685 10.9814 93.0142 12.1888C92.4105 12.7273 91.6925 13.1189 90.8604 13.3636C90.0282 13.5921 88.9839 13.7063 87.7276 13.7063H80.6787V0ZM83.5668 11.2343H87.2625C88.9105 11.2343 90.1261 10.8671 90.9093 10.1329C91.6925 9.36597 92.0841 8.27273 92.0841 6.85315C92.0841 5.44988 91.6925 4.3648 90.9093 3.5979C90.5014 3.20629 90.0037 2.9289 89.4163 2.76573C88.8453 2.58625 88.1273 2.4965 87.2625 2.4965H83.5668V11.2343Z" fill="white"/>
<path d="M109.489 9.98601C109.995 9.98601 110.419 10.1818 110.762 10.5734C111.121 10.965 111.3 11.4464 111.3 12.0175C111.3 12.5559 111.121 13.021 110.762 13.4126C110.403 13.8042 109.978 14 109.489 14C108.983 14 108.551 13.8042 108.192 13.4126C107.849 13.021 107.678 12.5478 107.678 11.993C107.678 11.4382 107.849 10.9732 108.192 10.5979C108.534 10.2063 108.967 10.0023 109.489 9.98601Z" fill="white"/>
</svg>
