<svg width="80" height="14" viewBox="0 0 80 14" fill="none" xmlns="http://www.w3.org/2000/svg">
<path d="M13.4613 8.51748C13.4613 10.1655 13.1513 11.3811 12.5312 12.1643C11.5196 13.3881 9.58608 14 6.73065 14C4.82159 14 3.27966 13.7063 2.10486 13.1189C1.2727 12.6783 0.709778 12.0583 0.416077 11.2587C0.138692 10.5245 0 9.61072 0 8.51748V0H2.88806V7.85664C2.88806 8.62354 2.95333 9.21096 3.08386 9.61888C3.23071 10.0268 3.49178 10.3613 3.86707 10.6224C4.56868 11.1445 5.57216 11.4056 6.8775 11.4056C8.19916 11.4056 9.21079 11.1445 9.91241 10.6224C10.2714 10.3613 10.5161 10.0268 10.6467 9.61888C10.7935 9.21096 10.8669 8.62354 10.8669 7.85664V0H13.4613V8.51748Z" fill="black"/>
<path d="M21.8254 4.67483V13.7063H19.231V0H21.7764L30.9056 8.81119V0H33.5V13.7063H31.2238L21.8254 4.67483Z" fill="black"/>
<path d="M47.0418 6.60839L52.2061 13.7063H48.8774L45.1817 9.03147L41.5349 13.7063H38.5L43.6887 6.75524L38.7937 0H42.2202L45.5978 4.38112L48.8774 0H52.0837L47.0418 6.60839Z" fill="black"/>
<path d="M56.6331 0H63.6819C65.3299 0 66.6271 0.212121 67.5735 0.636364C68.8788 1.22378 69.817 2.19464 70.3881 3.54895C70.796 4.49534 71 5.59674 71 6.85315C71 9.2028 70.3229 10.9814 68.9686 12.1888C68.3648 12.7273 67.6469 13.1189 66.8148 13.3636C65.9826 13.5921 64.9383 13.7063 63.6819 13.7063H56.6331V0ZM59.5212 11.2343H63.2169C64.8649 11.2343 66.0805 10.8671 66.8637 10.1329C67.6469 9.36597 68.0385 8.27273 68.0385 6.85315C68.0385 5.44988 67.6469 4.3648 66.8637 3.5979C66.4558 3.20629 65.9581 2.9289 65.3707 2.76573C64.7996 2.58625 64.0817 2.4965 63.2169 2.4965H59.5212V11.2343Z" fill="black"/>
<path d="M77.2972 9.98601C77.803 9.98601 78.2272 10.1818 78.5699 10.5734C78.9289 10.965 79.1083 11.4464 79.1083 12.0175C79.1083 12.5559 78.9289 13.021 78.5699 13.4126C78.2109 13.8042 77.7867 14 77.2972 14C76.7914 14 76.359 13.8042 76 13.4126C75.6573 13.021 75.486 12.5478 75.486 11.993C75.486 11.4382 75.6573 10.9732 76 10.5979C76.3427 10.2063 76.775 10.0023 77.2972 9.98601Z" fill="black"/>
</svg>
